<?xml version="1.0" standalone="no"?>
<!DOCTYPE svg PUBLIC "-//W3C//DTD SVG 20010904//EN"
 "http://www.w3.org/TR/2001/REC-SVG-20010904/DTD/svg10.dtd">
<svg version="1.0" xmlns="http://www.w3.org/2000/svg"
 width="700.000000pt" height="700.000000pt" viewBox="0 0 700.000000 700.000000"
 preserveAspectRatio="xMidYMid meet">
<metadata>
Created by potrace 1.14, written by Peter Selinger 2001-2017
</metadata>
<g transform="translate(0.000000,700.000000) scale(0.100000,-0.100000)"
fill="#000000" stroke="none">
<path d="M3470 4202 c0 -1332 -2 -2422 -3 -2422 -2 0 -30 9 -63 21 -221 76
-493 77 -714 2 -67 -23 -182 -75 -250 -114 -74 -42 -187 -134 -275 -223 -345
-347 -450 -795 -227 -973 135 -108 334 -162 572 -157 439 9 813 226 1007 585
55 101 114 281 129 394 3 28 9 59 11 70 3 11 7 843 8 1850 2 1007 3 1833 4
1838 1 4 9 3 19 -2 9 -5 35 -17 57 -27 116 -50 314 -154 405 -213 30 -19 65
-41 77 -48 31 -16 134 -95 213 -162 313 -265 497 -595 546 -981 18 -145 7
-442 -22 -584 -2 -12 -7 -37 -10 -56 -12 -79 -78 -324 -121 -450 -47 -140
-139 -378 -153 -395 -4 -5 -11 -21 -15 -35 -4 -14 -27 -65 -51 -115 -41 -86
-41 -89 -12 -55 99 116 248 348 348 545 133 263 194 457 235 754 13 90 6 361
-11 445 -2 12 -7 35 -10 51 -38 212 -141 463 -275 671 -62 96 -195 268 -270
349 -91 97 -192 214 -203 234 -5 9 -15 21 -21 26 -38 32 -266 354 -377 530
-155 248 -336 594 -468 895 -39 91 -74 167 -76 169 -2 2 -4 -1085 -4 -2417z"/>
</g>
</svg>
